<svg width="16" height="16" viewBox="0 0 16 16" fill="none" xmlns="http://www.w3.org/2000/svg">
<path d="M11.6924 2.86956C11.5161 2.86956 11.3438 2.92183 11.1973 3.01976C11.0507 3.11768 10.9365 3.25686 10.869 3.41971C10.8016 3.58255 10.7839 3.76173 10.8183 3.93461C10.8527 4.10748 10.9376 4.26627 11.0622 4.39091C11.1869 4.51554 11.3457 4.60042 11.5185 4.6348C11.6914 4.66919 11.8706 4.65154 12.0334 4.58409C12.1963 4.51664 12.3355 4.40242 12.4334 4.25586C12.5313 4.10931 12.5836 3.93701 12.5836 3.76075C12.5836 3.52439 12.4897 3.29771 12.3226 3.13059C12.1554 2.96346 11.9288 2.86956 11.6924 2.86956ZM15.1086 4.66678C15.0942 4.0506 14.9787 3.44096 14.767 2.86214C14.5781 2.36689 14.2842 1.91843 13.9055 1.54764C13.5378 1.16698 13.0883 0.874932 12.591 0.693593C12.0137 0.475373 11.4034 0.357328 10.7864 0.344547C9.99915 0.299988 9.74665 0.299988 7.72663 0.299988C5.70662 0.299988 5.45412 0.299988 4.6669 0.344547C4.04987 0.357328 3.43956 0.475373 2.86226 0.693593C2.36593 0.876767 1.91681 1.16856 1.54777 1.54764C1.1671 1.91539 0.875054 2.36489 0.693715 2.86214C0.475495 3.43943 0.35745 4.04975 0.344669 4.66678C0.30011 5.45399 0.30011 5.70649 0.30011 7.72651C0.30011 9.74652 0.30011 9.99902 0.344669 10.7862C0.35745 11.4033 0.475495 12.0136 0.693715 12.5909C0.875054 13.0881 1.1671 13.5376 1.54777 13.9054C1.91681 14.2845 2.36593 14.5762 2.86226 14.7594C3.43956 14.9776 4.04987 15.0957 4.6669 15.1085C5.45412 15.153 5.70662 15.153 7.72663 15.153C9.74665 15.153 9.99915 15.153 10.7864 15.1085C11.4034 15.0957 12.0137 14.9776 12.591 14.7594C13.0883 14.5781 13.5378 14.286 13.9055 13.9054C14.2859 13.536 14.5801 13.0871 14.767 12.5909C14.9787 12.0121 15.0942 11.4024 15.1086 10.7862C15.1086 9.99902 15.1532 9.74652 15.1532 7.72651C15.1532 5.70649 15.1532 5.45399 15.1086 4.66678ZM13.7718 10.6971C13.7664 11.1685 13.681 11.6356 13.5193 12.0785C13.4007 12.4016 13.2103 12.6937 12.9623 12.9325C12.7214 13.178 12.43 13.368 12.1083 13.4895C11.6654 13.6512 11.1984 13.7366 10.7269 13.742C9.98429 13.7791 9.70951 13.7865 7.75634 13.7865C5.80316 13.7865 5.52838 13.7865 4.78573 13.742C4.29624 13.7512 3.80884 13.6758 3.34498 13.5192C3.03736 13.3915 2.7593 13.2019 2.52807 12.9622C2.28157 12.7236 2.0935 12.4314 1.9785 12.1082C1.79719 11.659 1.69663 11.1813 1.68144 10.6971C1.68144 9.95446 1.63688 9.67968 1.63688 7.72651C1.63688 5.77333 1.63688 5.49855 1.68144 4.7559C1.68477 4.27396 1.77275 3.79635 1.94137 3.34486C2.07211 3.0314 2.27279 2.75197 2.52807 2.52794C2.75369 2.2726 3.03254 2.0698 3.34498 1.93382C3.79767 1.77047 4.27478 1.68509 4.75602 1.68132C5.49868 1.68132 5.77346 1.63676 7.72663 1.63676C9.67981 1.63676 9.95459 1.63676 10.6972 1.68132C11.1687 1.68673 11.6357 1.77211 12.0786 1.93382C12.4161 2.05907 12.719 2.2627 12.9623 2.52794C13.2057 2.75607 13.3959 3.03498 13.5193 3.34486C13.6844 3.79709 13.7698 4.2745 13.7718 4.7559C13.809 5.49855 13.8164 5.77333 13.8164 7.72651C13.8164 9.67968 13.809 9.95446 13.7718 10.6971ZM7.72663 3.9167C6.97344 3.91817 6.23759 4.14286 5.61204 4.56238C4.9865 4.9819 4.49935 5.57742 4.21213 6.2737C3.92491 6.96998 3.85052 7.73577 3.99836 8.47431C4.1462 9.21285 4.50964 9.89099 5.04274 10.4231C5.57585 10.9551 6.2547 11.3172 6.99353 11.4636C7.73236 11.61 8.498 11.5342 9.19372 11.2456C9.88944 10.957 10.484 10.4687 10.9023 9.84235C11.3206 9.21599 11.5439 8.4797 11.5439 7.72651C11.5448 7.2253 11.4467 6.72883 11.2551 6.26568C11.0636 5.80252 10.7823 5.38181 10.4276 5.02775C10.0728 4.67368 9.65155 4.39325 9.18802 4.20257C8.72449 4.0119 8.22784 3.91474 7.72663 3.9167ZM7.72663 10.1995C7.23751 10.1995 6.75938 10.0545 6.35269 9.78276C5.946 9.51102 5.62903 9.12478 5.44185 8.6729C5.25467 8.22101 5.2057 7.72377 5.30112 7.24404C5.39654 6.76432 5.63207 6.32367 5.97793 5.97781C6.32379 5.63195 6.76445 5.39642 7.24417 5.301C7.72389 5.20557 8.22113 5.25455 8.67302 5.44173C9.12491 5.6289 9.51114 5.94588 9.78288 6.35257C10.0546 6.75925 10.1997 7.23739 10.1997 7.72651C10.1997 8.05127 10.1357 8.37285 10.0114 8.6729C9.88713 8.97294 9.70497 9.24556 9.47533 9.47521C9.24569 9.70485 8.97306 9.88701 8.67302 10.0113C8.37298 10.1356 8.05139 10.1995 7.72663 10.1995Z" fill="white" fill-opacity="0.6"/>
</svg>
