<svg width="14" height="13" viewBox="0 0 14 13" fill="none" xmlns="http://www.w3.org/2000/svg">
<path d="M3.1763 12.9H0.258431V4.43098H3.1763V12.9ZM1.71736 3.24532C1.31495 3.24532 0.929024 3.09066 0.644477 2.81536C0.35993 2.54007 0.200073 2.16669 0.200073 1.77736C0.200073 1.38803 0.35993 1.01465 0.644477 0.739354C0.929024 0.464058 1.31495 0.309398 1.71736 0.309398C1.93105 0.285952 2.14743 0.306438 2.35237 0.369512C2.5573 0.432587 2.74614 0.536828 2.90655 0.675411C3.06695 0.813994 3.19529 0.983793 3.28316 1.17369C3.37103 1.36359 3.41646 1.5693 3.41646 1.77736C3.41646 1.98542 3.37103 2.19113 3.28316 2.38103C3.19529 2.57092 3.06695 2.74072 2.90655 2.87931C2.74614 3.01789 2.5573 3.12213 2.35237 3.18521C2.14743 3.24828 1.93105 3.26876 1.71736 3.24532ZM13.7001 12.9H10.7822V8.35495C10.7822 7.21634 10.364 6.47295 9.30382 6.47295C8.97572 6.47528 8.65624 6.57484 8.38842 6.75824C8.12061 6.94163 7.91733 7.20004 7.80598 7.49864C7.72987 7.71982 7.69689 7.95274 7.70872 8.18557V12.8906H4.79085C4.79085 12.8906 4.79085 5.19319 4.79085 4.42157H7.70872V5.61664C7.97379 5.17165 8.35931 4.80505 8.82377 4.55632C9.28823 4.3076 9.81403 4.18618 10.3445 4.20514C12.2898 4.20514 13.7001 5.41903 13.7001 8.0256V12.9Z" fill="white" fill-opacity="0.6"/>
</svg>
