<svg width="40" height="40" viewBox="0 0 40 40" fill="none" xmlns="http://www.w3.org/2000/svg">
<rect width="40" height="40" rx="3" fill="#7C0CF8"/>
<path d="M15.6814 17.5542V21.3469H13.0687V10H17.0419C17.8355 10 18.5157 10.096 19.0826 10.2881C19.6546 10.4751 20.1236 10.7347 20.4894 11.0669C20.8605 11.3992 21.1336 11.7912 21.3088 12.2429C21.484 12.6946 21.5716 13.1826 21.5716 13.707C21.5716 14.2729 21.4815 14.7921 21.3011 15.2646C21.1207 15.737 20.845 16.142 20.474 16.4795C20.1029 16.8169 19.6314 17.0817 19.0594 17.2738C18.4925 17.4607 17.82 17.5542 17.0419 17.5542H15.6814ZM15.6814 15.5683H17.0419C17.7221 15.5683 18.2117 15.4048 18.5106 15.0777C18.8095 14.7506 18.9589 14.2937 18.9589 13.707C18.9589 13.4474 18.9203 13.2112 18.843 12.9983C18.7657 12.7854 18.6471 12.6037 18.4874 12.4532C18.3328 12.2974 18.1344 12.178 17.8922 12.0949C17.6551 12.0119 17.3717 11.9703 17.0419 11.9703H15.6814V15.5683Z" fill="white" fill-opacity="0.8"/>
<path d="M27 30H24.6639V25.7357H20.5962V30H18.2601V19.9139H20.5962V24.1297H24.6639V19.9139H27V30Z" fill="white" fill-opacity="0.8"/>
<path d="M15.5766 28.7117C15.5766 29.4285 14.9998 30.0097 14.2883 30.0097C13.5768 30.0097 13 29.4285 13 28.7117C13 27.9948 13.5768 27.4137 14.2883 27.4137C14.9998 27.4137 15.5766 27.9948 15.5766 28.7117Z" fill="white" fill-opacity="0.8"/>
</svg>
